<svg width="22" height="24" viewBox="0 0 22 24" fill="none" xmlns="http://www.w3.org/2000/svg">
<g clip-path="url(#clip0_2962_442)">
<path d="M20.7963 0.5H1.20368C0.932814 0.5 0.713867 0.737986 0.713867 1.03241V5.82407H14.9185C15.4593 5.82407 15.8981 6.30111 15.8981 6.88889C15.8981 7.47667 15.4593 7.9537 14.9185 7.9537H1.23601L8.5509 15.4074V22.0625C8.5509 22.5033 8.88006 22.8611 9.28563 22.8611C9.44433 22.8611 9.5996 22.8052 9.72646 22.7014L13.1552 19.9063C13.3398 19.7556 13.4491 19.5181 13.4491 19.2674V15.4074L20.9765 7.73701C21.1739 7.53576 21.2861 7.25465 21.2861 6.96023V1.03241C21.2861 0.737986 21.0671 0.5 20.7963 0.5Z" fill="#029AAD"/>
</g>
<defs>
<clipPath id="clip0_2962_442">
<rect width="21.16" height="23" fill="white" transform="translate(0.419983 0.5)"/>
</clipPath>
</defs>
</svg>
