<svg width="100" height="19" viewBox="0 0 100 19" fill="none" xmlns="http://www.w3.org/2000/svg">
<path d="M61.7405 3.20286L57.7446 6.165L58.5762 0.240723H62.1563L61.7405 3.20286Z" fill="#FF7A01"/>
<path d="M59.5625 18.762L61.4868 5.00659L57.4758 8.09303L55.9824 18.762H59.5625Z" fill="#029AAD"/>
<path d="M14.9086 18.7621H2.54841C0.618949 18.7621 -0.240563 18.1326 0.0586185 16.0062L1.89934 2.84586C1.97805 2.10839 2.30402 1.42365 2.8197 0.912533C3.32679 0.436475 4.11278 0.195801 5.19794 0.195801H17.2742L15.7529 2.98074H6.73441C5.90279 2.98074 5.42613 3.24522 5.29682 4.14708L4.88862 7.07748L4.76692 7.89472H14.5588L12.9741 10.6797H4.37392L3.77049 14.9721H3.78317C3.7449 15.1071 3.73851 15.2498 3.76456 15.388C3.79061 15.5261 3.84832 15.6557 3.93276 15.7655C4.08319 15.9154 4.48379 15.9903 5.13455 15.9903H16.4832L14.9086 18.7621Z" fill="#029AAD"/>
<path d="M40.978 9.50533H48.4169C49.3576 9.50533 50.0472 9.24085 50.4833 8.68281C50.8366 8.23849 51.1011 7.38952 51.2769 6.1359C51.4544 4.86112 51.3479 4.00422 50.9574 3.56254C50.6278 3.19227 49.9889 3.0045 49.028 3.0045H43.2193C42.3623 3.0045 41.8273 3.4303 41.698 4.32688L40.978 9.50533ZM40.6255 12.0179L39.6773 18.7885H36.0947L38.2549 3.37476C38.5541 1.2325 39.6925 0.216912 41.764 0.216912H50.7774C54.6186 0.216912 55.4959 2.39884 54.9913 6.00102C54.5349 9.22763 53.3129 12.1025 49.7354 12.1025H47.2937L47.276 12.2374L53.5791 18.7885H49.0736L43.6731 12.7663C42.9353 11.883 42.271 12.0179 40.6306 12.0179H40.6255ZM37.8797 0.201043L28.638 16.9821C28.3179 17.6127 27.8339 18.1365 27.2415 18.4934C26.6491 18.8503 25.9723 19.0259 25.2887 19C23.803 19 22.8733 18.3274 22.4997 16.9821L17.9512 0.201043H21.8355L25.4104 15.1942C25.5752 15.8025 25.9758 15.6438 26.2243 15.1942L33.9979 0.201043H37.8797ZM79.2072 18.7752H74.6713L67.8536 11.6344C66.4844 10.2062 66.7785 8.37866 68.2085 7.15149L76.3777 0.201043H80.802L71.5375 7.82855C70.8606 8.37866 70.5005 8.83885 70.4473 9.20912C70.3763 9.7222 70.6654 10.3041 71.3144 10.96L79.2072 18.7752ZM66.4464 18.7752H62.8613L65.4652 0.201043H69.0477L66.4464 18.7752ZM100 18.7752H96.2301L94.932 14.0781H85.7816L83.198 18.7885H79.4253L88.9306 2.09999C89.8104 0.563376 90.6141 0.00268555 92.3433 0.00268555C93.9203 0.00268555 94.6936 0.510481 95.1728 2.09999L100 18.7752ZM94.3564 11.5973L92.3281 4.03595C92.1836 3.52287 92.039 3.26633 91.892 3.26633C91.7449 3.26633 91.532 3.5308 91.2429 4.03595L87.0569 11.5973H94.3564Z" fill="#029AAD"/>
</svg>
