<svg width="20" height="20" viewBox="0 0 20 20" fill="none" xmlns="http://www.w3.org/2000/svg">
<path d="M10 18.6667C9.54201 18.6667 9.07568 18.6294 8.61401 18.555L8.33334 18.51V16.795C8.33234 16.263 7.86134 15.6684 7.18734 15.6664C6.91901 15.6664 6.65834 15.7647 6.45068 15.9434L5.06934 17.1314L4.85534 16.9734C4.15468 16.456 3.53801 15.8384 3.02134 15.137L2.86401 14.9237L4.06168 13.526C4.23701 13.3227 4.33334 13.0624 4.33334 12.7934C4.33334 12.1724 3.82768 11.6667 3.20668 11.6667H1.49001L1.44534 11.386C1.37068 10.9244 1.33334 10.458 1.33334 10C1.33334 9.54204 1.37068 9.07571 1.44501 8.61404L1.49001 8.33337H3.20668C3.82768 8.33337 4.33334 7.82771 4.33334 7.20671C4.33334 6.93771 4.23701 6.67737 4.06234 6.47337L2.86434 5.07571L3.02168 4.86237C3.53834 4.16104 4.15501 3.54337 4.85568 3.02604L5.06968 2.86804L6.45101 4.05604C6.65868 4.23471 6.91934 4.33304 7.18434 4.33304C7.86168 4.33104 8.33268 3.73637 8.33368 3.20371V1.49004L8.61434 1.44504C9.07568 1.37071 9.54201 1.33337 10 1.33337C10.458 1.33337 10.9243 1.37071 11.386 1.44504L11.6667 1.49004V3.20504C11.6677 3.73704 12.1387 4.33171 12.8127 4.33371C13.081 4.33371 13.3417 4.23537 13.5493 4.05671L14.9307 2.86871L15.1447 3.02671C15.8453 3.54404 16.462 4.16171 16.9787 4.86304L17.136 5.07637L15.9383 6.47404C15.763 6.67737 15.6667 6.93771 15.6667 7.20671C15.6667 7.82771 16.1723 8.33337 16.7933 8.33337H18.51L18.555 8.61404C18.6293 9.07571 18.6667 9.54204 18.6667 10C18.6667 10.458 18.6293 10.9244 18.555 11.386L18.51 11.6667H16.7933C16.1723 11.6667 15.6667 12.1724 15.6667 12.7934C15.6667 13.0624 15.763 13.3227 15.9377 13.5267L17.1357 14.9244L16.9783 15.1377C16.4617 15.839 15.845 16.4567 15.1443 16.974L14.9303 17.132L13.549 15.944C13.3417 15.765 13.081 15.6667 12.816 15.6667C12.1387 15.6687 11.6677 16.2634 11.6667 16.796V18.5104L11.386 18.5554C10.9243 18.6294 10.458 18.6667 10 18.6667V18.6667ZM10 8.00004C8.89701 8.00004 8.00001 8.89704 8.00001 10C8.00001 11.103 8.89701 12 10 12C11.103 12 12 11.103 12 10C12 8.89704 11.103 8.00004 10 8.00004Z" fill="#029AAD"/>
</svg>
