<svg width="26" height="26" viewBox="0 0 26 26" fill="none" xmlns="http://www.w3.org/2000/svg">
<path d="M4.66667 10.9167H2.58333C2.12333 10.9167 1.75 11.2901 1.75 11.7501V14.2501C1.75 14.7101 2.12333 15.0834 2.58333 15.0834H4.66667V10.9167Z" fill="#029AAD"/>
<path d="M16.8892 12.3522L12.8309 8.59091C12.4196 8.20758 11.75 8.49841 11.75 9.0605V10.9167H5.91669V15.0834H11.75V16.9401C11.75 17.5017 12.4196 17.7926 12.8304 17.4092L16.8892 13.648C17.0771 13.473 17.1667 13.2363 17.1667 13.0001C17.1667 12.7638 17.0771 12.5276 16.8892 12.3522Z" fill="#029AAD"/>
<path d="M3.83333 7.99992C3.37333 7.99992 3 7.62659 3 7.16659C3 6.70659 3.37333 6.33325 3.83333 6.33325H5.91667C6.37667 6.33325 6.75 6.70659 6.75 7.16659C6.75 7.62659 6.37667 7.99992 5.91667 7.99992H3.83333Z" fill="#029AAD"/>
<path d="M2.58333 20.9167C2.12333 20.9167 1.75 20.5433 1.75 20.0833C1.75 19.6233 2.12333 19.25 2.58333 19.25H4.66667C5.12667 19.25 5.5 19.6233 5.5 20.0833C5.5 20.5433 5.12667 20.9167 4.66667 20.9167H2.58333Z" fill="#029AAD"/>
<path d="M21.3334 2.16675H10.5C9.34919 2.16675 8.41669 3.09925 8.41669 4.25008V9.25008H10.0834V9.0605C10.0834 8.14091 10.6284 7.30967 11.4717 6.943C12.3142 6.57591 13.2946 6.74425 13.9675 7.37217L18.0217 11.1301C18.5392 11.6122 18.8334 12.2926 18.8334 13.0001C18.8334 13.7076 18.5392 14.388 18.0259 14.8663L13.9629 18.6313C13.53 19.0359 12.9659 19.2501 12.3929 19.2501C12.0821 19.2501 11.7688 19.1867 11.4721 19.0576C10.6288 18.6909 10.0834 17.8601 10.0834 16.9401V16.7501H8.41669V21.7501C8.41669 22.9009 9.34919 23.8334 10.5 23.8334H21.3334C22.4842 23.8334 23.4167 22.9009 23.4167 21.7501V4.25008C23.4167 3.09925 22.4842 2.16675 21.3334 2.16675Z" fill="#029AAD"/>
</svg>
