<svg width="26" height="26" viewBox="0 0 26 26" fill="none" xmlns="http://www.w3.org/2000/svg">
<g clip-path="url(#clip0_2962_430)">
<path d="M18.8334 13.4166C15.8417 13.4166 13.4167 15.8416 13.4167 18.8333C13.4167 21.825 15.8417 24.25 18.8334 24.25C21.825 24.25 24.25 21.825 24.25 18.8333C24.25 15.8416 21.825 13.4166 18.8334 13.4166ZM20.9167 22.1666H16.75C16.29 22.1666 15.9167 21.7933 15.9167 21.3333V18.8333H17.1667V19.6666C17.1667 19.897 17.3529 20.0833 17.5834 20.0833C17.8138 20.0833 18 19.897 18 19.6666V18.8333H19.6667V19.6666C19.6667 19.897 19.8529 20.0833 20.0834 20.0833C20.3138 20.0833 20.5 19.897 20.5 19.6666V18.8333H21.75V21.3333C21.75 21.7933 21.3767 22.1666 20.9167 22.1666ZM22.1667 17.5833C22.1667 17.8137 21.9804 18 21.7679 18H15.9346C15.6863 18 15.5 17.8137 15.5 17.5833V17.1666C15.5 16.7066 15.8734 16.3333 16.3334 16.3333H17.5834V15.5C17.5834 15.2695 17.7696 15.0833 18 15.0833H19.6667C19.8971 15.0833 20.0834 15.2695 20.0834 15.5V16.3333H21.3334C21.7934 16.3333 22.1667 16.7066 22.1667 17.1666V17.5833Z" fill="white"/>
<path d="M12.8154 20.5H11.3221C11.8316 20.1204 12.1666 19.5183 12.1666 18.8333C12.1666 17.6825 11.2341 16.75 10.0833 16.75C8.93248 16.75 7.99998 17.6825 7.99998 18.8333C7.99998 19.5183 8.33498 20.1204 8.84456 20.5H3.41665C2.95665 20.5 2.58331 20.8733 2.58331 21.3333C2.58331 21.7933 2.95665 22.1667 3.41665 22.1667H13.5525C13.23 21.6558 12.9796 21.0967 12.8154 20.5Z" fill="white"/>
<path d="M18.8333 12.5834C20.8812 12.5834 22.6933 13.573 23.8333 15.0946V11.75H21.5416C21.1966 11.75 20.9166 11.47 20.9166 11.125C20.9166 10.78 21.1966 10.5 21.5416 10.5H23.8333V9.25004H19.875C19.53 9.25004 19.25 8.97004 19.25 8.62504C19.25 8.28004 19.53 8.00004 19.875 8.00004H23.8333V6.75004H20.7083C20.3633 6.75004 20.0833 6.47004 20.0833 6.12504C20.0833 5.78004 20.3633 5.50004 20.7083 5.50004H23.8333V3.83337H11.3587C10.8016 3.83337 10.2812 4.11171 9.97206 4.57546L6.89998 9.18421C6.5079 9.77212 5.95831 10.2371 5.31373 10.5263L3.32248 11.4192C2.87248 11.62 2.58331 12.0671 2.58331 12.5596V16.3334H4.24998C4.4804 16.3334 4.66665 16.5196 4.66665 16.75C4.66665 16.9805 4.4804 17.1667 4.24998 17.1667H2.58331V18C2.58331 18.46 2.95665 18.8334 3.41665 18.8334H7.16665C7.16665 17.2225 8.47248 15.9167 10.0833 15.9167C11.2421 15.9167 12.24 16.5942 12.7104 17.573C13.2937 14.7255 15.8133 12.5834 18.8333 12.5834ZM5.91665 13.8334H4.24998C4.01956 13.8334 3.83331 13.6471 3.83331 13.4167V12.8292C3.83331 12.665 3.92956 12.5163 4.07956 12.4492L5.91665 11.6255V13.8334ZM7.61415 10.5L10.6958 5.87171C10.8508 5.63962 11.1112 5.50004 11.39 5.50004H13.4166V10.5H7.61415Z" fill="white"/>
<path d="M5.08333 3.83329C4.62333 3.83329 4.25 3.45996 4.25 2.99996C4.25 2.53996 4.62333 2.16663 5.08333 2.16663H7.58333C8.04333 2.16663 8.41667 2.53996 8.41667 2.99996C8.41667 3.45996 8.04333 3.83329 7.58333 3.83329H5.08333Z" fill="white"/>
<path d="M1.75002 8.41667C1.29002 8.41667 0.916687 8.04333 0.916687 7.58333C0.916687 7.12333 1.29002 6.75 1.75002 6.75H5.08335C5.54335 6.75 5.91669 7.12333 5.91669 7.58333C5.91669 8.04333 5.54335 8.41667 5.08335 8.41667H1.75002Z" fill="white"/>
</g>
<defs>
<clipPath id="clip0_2962_430">
<rect width="25" height="25" fill="white" transform="translate(0.5 0.5)"/>
</clipPath>
</defs>
</svg>
