<svg width="20" height="20" viewBox="0 0 20 20" fill="none" xmlns="http://www.w3.org/2000/svg">
<path d="M17.3973 15.4933C15.9637 14.5053 15.6667 13.1127 15.6667 10.3333V8.66667C15.6667 5.908 13.6943 3.612 11.083 3.106C11.2393 2.88767 11.3333 2.62233 11.3333 2.33333C11.3333 1.597 10.7363 1 10 1C9.26368 1 8.66668 1.597 8.66668 2.33333C8.66668 2.62233 8.76068 2.88767 8.91701 3.106C6.30568 3.612 4.33334 5.908 4.33334 8.66667V10.3333C4.33334 13.1127 4.03634 14.5053 2.60268 15.4933C2.43134 15.6117 2.33334 15.8107 2.33334 16.0187C2.33334 16.3763 2.62368 16.6667 2.98168 16.6667H17.0183C17.3763 16.6667 17.6667 16.3763 17.6667 16.0187C17.6667 15.8107 17.5687 15.6117 17.3973 15.4933Z" fill="#029AAD"/>
<path d="M11.3333 18C11.3333 18.7363 10.7363 19.3333 9.99999 19.3333C9.26366 19.3333 8.66666 18.7363 8.66666 18V17.6666H11.3333V18Z" fill="#029AAD"/>
<circle cx="16" cy="4" r="4" fill="#FF0000"/>
</svg>
