<svg width="26" height="26" viewBox="0 0 26 26" fill="none" xmlns="http://www.w3.org/2000/svg">
<path d="M11.75 18C11.75 18.7883 11.4737 19.512 11.0142 20.0833H21.3333C22.4842 20.0833 23.4167 19.1508 23.4167 18V17.1666H11.75V18Z" fill="#029AAD"/>
<path d="M20.5 4.25V2.58333C20.5 2.12333 20.1266 1.75 19.6666 1.75C19.2066 1.75 18.8333 2.12333 18.8333 2.58333V5.70833C18.8333 6.05333 18.5533 6.33333 18.2083 6.33333C17.8633 6.33333 17.5833 6.05333 17.5833 5.70833V4.25H15.9166V2.58333C15.9166 2.12333 15.5433 1.75 15.0833 1.75C14.6233 1.75 14.25 2.12333 14.25 2.58333V5.70833C14.25 6.05333 13.97 6.33333 13.625 6.33333C13.28 6.33333 13 6.05333 13 5.70833V4.25H11.3333V2.58333C11.3333 2.12333 10.96 1.75 10.5 1.75C10.04 1.75 9.66665 2.12333 9.66665 2.58333V5.70833C9.66665 6.05333 9.38665 6.33333 9.04165 6.33333C8.69665 6.33333 8.41665 6.05333 8.41665 5.70833V4.25H7.99998C7.07956 4.25 6.33331 4.99625 6.33331 5.91667V18C6.33331 19.1508 7.26581 20.0833 8.41665 20.0833C9.56748 20.0833 10.5 19.1508 10.5 18V15.9167H22.1666V5.91667C22.1666 4.99625 21.4204 4.25 20.5 4.25ZM18.1529 9.85792L14.4029 13.6079C14.2541 13.7479 14.0537 13.8333 13.8333 13.8333C13.6029 13.8333 13.3946 13.74 13.2441 13.5892L11.1608 11.5058C11.01 11.3554 10.9166 11.1471 10.9166 10.9167C10.9166 10.4567 11.29 10.0833 11.75 10.0833C11.9804 10.0833 12.1887 10.1767 12.3391 10.3275L13.8521 11.8404L17.0137 8.64208C17.1625 8.50208 17.3629 8.41667 17.5833 8.41667C18.0433 8.41667 18.4166 8.79 18.4166 9.25C18.4166 9.49 18.3154 9.70625 18.1529 9.85792Z" fill="#029AAD"/>
<path d="M8.41669 21.3333C6.57877 21.3333 5.08335 19.8379 5.08335 18V5.91663H3.83335C3.60294 5.91663 3.41669 6.10288 3.41669 6.33329V23.4166C3.41669 23.647 3.60294 23.8333 3.83335 23.8333H18.8334C19.0638 23.8333 19.25 23.647 19.25 23.4166V21.3333H8.41669Z" fill="#029AAD"/>
</svg>
