<svg width="26" height="26" viewBox="0 0 26 26" fill="none" xmlns="http://www.w3.org/2000/svg">
<path d="M19.5567 16.89C19.6234 16.9638 19.6667 17.0592 19.6667 17.1667C19.6667 17.3971 19.4804 17.5834 19.25 17.5834C19.1375 17.5834 19.0359 17.538 18.9613 17.4655L17.0071 15.2946C16.8925 15.1659 16.7271 15.0834 16.5417 15.0834C16.1967 15.0834 15.9167 15.3634 15.9167 15.7084C15.9167 15.805 15.9409 15.8959 15.98 15.978C16.8809 17.8517 17.2309 18.4367 17.4359 19.6363C17.7346 21.3875 18.8334 21.3367 18.8334 23.4167H22.5834V15.9167H18.6842L19.5567 16.89Z" fill="#029AAD"/>
<path d="M23.2084 13H14.6667L13.4167 14.0417L14.6667 15.0833H15.23C15.4646 14.5925 15.9625 14.25 16.5417 14.25C17.2538 14.25 17.5625 14.6667 17.9379 15.0833H23.2084C23.7838 15.0833 24.25 14.6171 24.25 14.0417C24.25 13.4662 23.7838 13 23.2084 13Z" fill="#029AAD"/>
<path d="M21.75 12.1666C20.9954 11.6991 19.4283 10.9166 18.5787 10.9166C17.9204 10.9166 17.305 11.195 16.3333 12.1666H21.75Z" fill="#029AAD"/>
<path d="M15.5934 17.09C15.2496 16.3804 15.1592 16.2679 15.1071 15.9166H14.3654L12.1159 14.0416L14.3654 12.1666H15.1554C16.0342 11.2879 16.8525 10.3933 17.9754 10.15L15.4734 2.45121C15.4179 2.28663 15.2663 2.16663 15.0834 2.16663C15.0396 2.16663 14.9988 2.17871 14.9588 2.19204L2.44835 6.36038C2.28544 6.41704 2.16669 6.56788 2.16669 6.74996C2.16669 6.79288 2.17877 6.83163 2.19127 6.87079L7.61044 23.5487C7.66544 23.7133 7.8171 23.8333 8.00002 23.8333C8.04377 23.8333 8.0846 23.8212 8.1246 23.8079L16.9496 20.867C16.8117 20.5704 16.69 20.2187 16.6146 19.7762C16.46 18.8708 16.2238 18.3858 15.5934 17.09ZM4.69835 7.80663L7.13044 6.99663L7.94877 9.51496L5.5071 10.3283L4.69835 7.80663ZM8.18085 15.2366C7.69085 14.9733 8.12419 15.2062 5.68544 13.8962L6.27669 12.795L7.63877 13.5262L8.92169 10.9604L10.04 11.5195C8.1296 15.3395 8.4371 14.725 8.18085 15.2366ZM10.2917 7.99996C9.94669 7.99996 9.66669 7.71996 9.66669 7.37496C9.66669 7.09913 9.84669 6.86746 10.0946 6.78454L13.8446 5.53454C13.9071 5.51371 13.9725 5.49996 14.0417 5.49996C14.3867 5.49996 14.6667 5.77996 14.6667 6.12496C14.6667 6.40079 14.4867 6.63246 14.2388 6.71538L10.4888 7.96538C10.4263 7.98621 10.3609 7.99996 10.2917 7.99996ZM11.5417 10.9166C11.1967 10.9166 10.9167 10.6366 10.9167 10.2916C10.9167 10.0158 11.0967 9.78413 11.3446 9.70121L15.0946 8.45121C15.1571 8.43038 15.2225 8.41663 15.2917 8.41663C15.6367 8.41663 15.9167 8.69663 15.9167 9.04163C15.9167 9.31746 15.7367 9.54913 15.4888 9.63204L11.7388 10.882C11.6763 10.9029 11.6109 10.9166 11.5417 10.9166Z" fill="#029AAD"/>
</svg>
