<svg width="26" height="26" viewBox="0 0 26 26" fill="none" xmlns="http://www.w3.org/2000/svg">
<path d="M10.6404 9.25004L11.94 7.17129C12.4304 6.38587 13.2763 5.91671 14.2029 5.91671H18V1.75004C18 1.52004 17.8134 1.33337 17.5834 1.33337H9.25002V4.66671C9.25002 5.35587 8.68919 5.91671 8.00002 5.91671H4.66669V9.25004H10.6404ZM11.5417 3.00004H15.7084C16.0538 3.00004 16.3334 3.28004 16.3334 3.62504C16.3334 3.97004 16.0538 4.25004 15.7084 4.25004H11.5417C11.1963 4.25004 10.9167 3.97004 10.9167 3.62504C10.9167 3.28004 11.1963 3.00004 11.5417 3.00004Z" fill="#029AAD"/>
<path d="M17.1667 11.3334C13.485 11.3334 10.5 14.3184 10.5 18C10.5 21.6817 13.485 24.6667 17.1667 24.6667C20.8483 24.6667 23.8333 21.6817 23.8333 18C23.8333 14.3184 20.8483 11.3334 17.1667 11.3334ZM17.1667 17.1667C18.7746 17.1667 20.0833 18.288 20.0833 19.6667C20.0833 20.7971 19.2033 21.7534 18 22.0613V22.1667C18 22.6267 17.6267 23 17.1667 23C16.7067 23 16.3333 22.6267 16.3333 22.1667V22.0613C15.2363 21.773 14.5733 20.9588 14.3287 20.4371C14.2754 20.3225 14.25 20.2021 14.25 20.0834C14.25 19.62 14.6271 19.25 15.0833 19.25C15.3967 19.25 15.6967 19.428 15.8379 19.7296C15.8733 19.7992 16.2533 20.5 17.1667 20.5C17.8325 20.5 18.4167 20.1105 18.4167 19.6667C18.4167 19.223 17.8325 18.8334 17.1667 18.8334C15.5588 18.8334 14.25 17.7121 14.25 16.3334C14.25 15.203 15.13 14.2467 16.3333 13.9388V13.8334C16.3333 13.3734 16.7067 13 17.1667 13C17.6267 13 18 13.3734 18 13.8334V13.9388C19.0971 14.2271 19.76 15.0413 20.0046 15.563C20.0579 15.6775 20.0833 15.798 20.0833 15.9167C20.0833 16.3792 19.7071 16.75 19.25 16.75C18.9375 16.75 18.6375 16.5725 18.4954 16.2705C18.46 16.2009 18.08 15.5 17.1667 15.5C16.5008 15.5 15.9167 15.8896 15.9167 16.3334C15.9167 16.7771 16.5008 17.1667 17.1667 17.1667Z" fill="#029AAD"/>
<path d="M4.96169 5.08337H8.00002C8.23002 5.08337 8.41669 4.89671 8.41669 4.66671V1.62837C8.41669 1.45046 8.27169 1.33337 8.1196 1.33337C8.0471 1.33337 7.97335 1.35962 7.91335 1.42004L4.75294 4.58046C4.69169 4.64129 4.66669 4.71712 4.66669 4.79087C4.66669 4.94087 4.78544 5.08337 4.96169 5.08337Z" fill="#029AAD"/>
<path d="M17.1667 10.0833C18.3446 10.0833 19.4587 10.3475 20.4633 10.8091L21.2696 8.59246C21.31 8.48121 21.3333 8.36371 21.3333 8.24496C21.3333 7.65204 20.8737 7.16663 20.2217 7.16663H14.2029C13.7137 7.16663 13.2592 7.41871 12.9996 7.83371L11.3333 10.5H2.84875C2.18542 10.5 1.75 11.012 1.75 11.5441C1.75 11.6737 1.76875 11.8029 1.8125 11.925L5.24625 21.4633C5.39833 21.885 5.79875 22.1666 6.2475 22.1666H10.4442C9.69208 20.9554 9.25 19.5308 9.25 18C9.25 13.5733 12.845 10.0833 17.1667 10.0833Z" fill="#029AAD"/>
</svg>
