<svg width="25" height="26" viewBox="0 0 25 26" fill="none" xmlns="http://www.w3.org/2000/svg">
<path d="M10.8334 2.16663C5.77085 2.16663 1.66669 6.27079 1.66669 11.3333C1.66669 16.3958 5.77085 20.5 10.8334 20.5C15.8959 20.5 20 16.3958 20 11.3333C20 6.27079 15.8959 2.16663 10.8334 2.16663ZM10.8334 17.1666C7.61169 17.1666 5.00002 14.555 5.00002 11.3333C5.00002 8.11163 7.61169 5.49996 10.8334 5.49996C14.055 5.49996 16.6667 8.11163 16.6667 11.3333C16.6667 14.555 14.055 17.1666 10.8334 17.1666Z" fill="#029AAD"/>
<path d="M23.2621 21.405L19.5804 17.7229C18.9204 18.6246 18.125 19.42 17.2233 20.08L20.905 23.7617C21.2067 24.0637 21.6233 24.25 22.0833 24.25C23.0037 24.25 23.75 23.5037 23.75 22.5833C23.75 22.1233 23.5633 21.7067 23.2621 21.405V21.405Z" fill="#029AAD"/>
</svg>
