<svg width="20" height="21" viewBox="0 0 20 21" fill="none" xmlns="http://www.w3.org/2000/svg">
<path d="M17.5 18.1056C17.4607 15.6037 16.6774 13.3287 15.2846 11.6815C13.8999 10.0444 12.0233 9.14286 9.99992 9.14286C7.97652 9.14286 6.09993 10.0444 4.71524 11.6815C3.32377 13.3269 2.54092 15.5987 2.5 18.0976C3.28682 18.4898 6.54278 20 9.99992 20C13.7383 20 16.7703 18.4987 17.5 18.1056Z" fill="#029AAD"/>
<path d="M9.99993 8.46429C12.0714 8.46429 13.7507 6.79335 13.7507 4.73214C13.7507 2.67094 12.0714 1 9.99993 1C7.92842 1 6.24912 2.67094 6.24912 4.73214C6.24912 6.79335 7.92842 8.46429 9.99993 8.46429Z" fill="#029AAD"/>
</svg>
