<svg width="20" height="21" viewBox="0 0 20 21" fill="none" xmlns="http://www.w3.org/2000/svg">
<path d="M17.0833 8.125H15.8333V6.54165C15.8333 3.48596 13.2166 1 10 1C6.78344 1 4.16668 3.48596 4.16668 6.54165V8.125H2.91668C2.68637 8.125 2.5 8.30205 2.5 8.52085V18.4167C2.5 19.2899 3.24746 20 4.16668 20H15.8334C16.7525 20 17.5 19.2899 17.5 18.4167V8.52085C17.5 8.30205 17.3136 8.125 17.0833 8.125ZM11.2476 16.3938C11.2606 16.5055 11.2228 16.6176 11.1438 16.7015C11.0649 16.7854 10.9518 16.8333 10.8334 16.8333H9.16668C9.04828 16.8333 8.93516 16.7854 8.85621 16.7015C8.77727 16.6177 8.73941 16.5056 8.75246 16.3938L9.01531 14.1483C8.58848 13.8534 8.33336 13.3868 8.33336 12.875C8.33336 12.0018 9.08082 11.2917 10 11.2917C10.9193 11.2917 11.6667 12.0017 11.6667 12.875C11.6667 13.3868 11.4116 13.8534 10.9848 14.1483L11.2476 16.3938ZM13.3333 8.125H6.66668V6.54165C6.66668 4.79558 8.16203 3.375 10 3.375C11.838 3.375 13.3333 4.79558 13.3333 6.54165V8.125Z" fill="#029AAD"/>
</svg>
