<svg width="16" height="19" viewBox="0 0 16 19" fill="none" xmlns="http://www.w3.org/2000/svg">
<path d="M5.64286 0.0339578C5.13929 0.100913 4.64643 0.480327 4.425 0.971333C4.31786 1.21684 4.25357 1.58509 4.25 1.99054V2.22489H2.67143C1.675 2.22489 1.01071 2.23977 0.867857 2.2658C0.596429 2.31416 0.360714 2.46667 0.189286 2.70101C0.05 2.89444 0 3.06555 0 3.35941C0 3.7723 0.275 4.17403 0.664286 4.33026C0.835714 4.39722 1.04286 4.40094 8 4.40094C14.9571 4.40094 15.1643 4.39722 15.3357 4.33026C15.725 4.17403 16 3.7723 16 3.35941C16 3.06555 15.95 2.89444 15.8107 2.70101C15.6393 2.46667 15.4036 2.31416 15.1321 2.2658C14.9893 2.23977 14.325 2.22489 13.3286 2.22489H11.75V1.99054C11.75 1.86407 11.7321 1.63345 11.7143 1.48094C11.6214 0.718391 11.0571 0.130671 10.3179 0.0302381C9.99643 -0.0106791 5.97143 -0.0106791 5.64286 0.0339578ZM10.4214 1.14616C10.6286 1.28007 10.6786 1.41398 10.6786 1.84175V2.22489H5.32143V1.84175C5.32143 1.41398 5.37143 1.28007 5.57857 1.14616C5.69286 1.07549 5.76429 1.07177 8 1.07177C10.2357 1.07177 10.3071 1.07549 10.4214 1.14616Z" fill="#029AAD"/>
<path d="M1.10714 5.67309C1.11071 5.73261 1.325 8.45546 1.58571 11.7288C1.95357 16.3078 2.07857 17.7251 2.12857 17.8664C2.26786 18.283 2.61429 18.6699 3.00714 18.8484C3.09643 18.8931 3.27857 18.9414 3.41429 18.9637C3.74643 19.0121 12.2536 19.0121 12.5857 18.9637C12.7214 18.9414 12.9036 18.8931 12.9929 18.8484C13.3857 18.6699 13.7321 18.283 13.8714 17.8664C13.9214 17.7251 14.0464 16.3078 14.4143 11.7288C14.675 8.45546 14.8893 5.73261 14.8929 5.67309V5.57266H1.10714V5.67309ZM5.07143 6.73694C5.33571 6.9192 5.3 6.60303 5.59286 11.4796C5.73571 13.9086 5.85714 16.0103 5.85714 16.1553C5.85714 16.3488 5.83929 16.4455 5.78571 16.5385C5.57143 16.9067 5.05714 16.8956 4.84643 16.5161C4.78571 16.4046 4.75357 15.9693 4.51429 11.9967C4.37143 9.57882 4.25 7.47345 4.25 7.32094C4.25 7.00104 4.31786 6.84853 4.50714 6.72578C4.67143 6.62162 4.91786 6.62906 5.07143 6.73694ZM8.27857 6.72578C8.34286 6.76669 8.425 6.85225 8.46429 6.9192C8.53572 7.03824 8.53572 7.11635 8.53572 11.7288C8.53572 16.3413 8.53572 16.4194 8.46429 16.5385C8.25357 16.8956 7.74643 16.8956 7.53571 16.5385C7.46429 16.4194 7.46429 16.3413 7.46429 11.7288C7.46429 7.11635 7.46429 7.03824 7.53571 6.9192C7.63571 6.75181 7.80714 6.65138 8 6.65138C8.09643 6.65138 8.20714 6.68114 8.27857 6.72578ZM11.4929 6.72578C11.6821 6.84853 11.75 7.00104 11.75 7.32094C11.75 7.47345 11.6286 9.57882 11.4857 11.9967C11.1964 16.8584 11.2321 16.5347 10.9607 16.7244C10.8607 16.7988 10.8036 16.81 10.6321 16.7988C10.45 16.784 10.4107 16.7654 10.2929 16.6463C10.1643 16.5124 10.1607 16.4975 10.15 16.2C10.1464 16.0326 10.2607 13.9086 10.4071 11.4796C10.7 6.60303 10.6643 6.9192 10.9286 6.73694C11.0821 6.62906 11.3286 6.62162 11.4929 6.72578Z" fill="#029AAD"/>
</svg>
