<svg width="15" height="16" viewBox="0 0 15 16" fill="none" xmlns="http://www.w3.org/2000/svg">
<path d="M0.429169 2.34309C0.0386451 1.95257 0.0386449 1.3194 0.429169 0.92888C0.819693 0.538355 1.45286 0.538355 1.84338 0.92888L14.5713 13.6568C14.9618 14.0473 14.9618 14.6805 14.5713 15.071C14.1808 15.4615 13.5476 15.4615 13.1571 15.071L0.429169 2.34309Z" fill="white"/>
<path d="M13.157 0.928909C13.5476 0.538384 14.1807 0.538384 14.5713 0.928908C14.9618 1.31943 14.9618 1.9526 14.5713 2.34312L1.84334 15.071C1.45281 15.4616 0.819648 15.4616 0.429124 15.071C0.0385994 14.6805 0.0385994 14.0474 0.429124 13.6568L13.157 0.928909Z" fill="white"/>
</svg>
